<svg xmlns="http://www.w3.org/2000/svg" width="636" height="98" viewBox="0 0 636 98" fill="none">
  <path d="M441.648 20.2935C439.26 16.7847 436.265 13.7309 432.802 11.2764C429.262 8.77999 425.39 6.79022 421.299 5.36472C416.887 3.82983 412.332 2.74175 407.702 2.11686C402.673 1.4268 397.601 1.08648 392.524 1.09834H313.408V97.1738H392.667C397.741 97.1882 402.81 96.8503 407.838 96.1624C412.459 95.541 417.005 94.4528 421.406 92.9146C425.467 91.4804 429.303 89.4781 432.802 86.9673C436.236 84.4878 439.216 81.4351 441.613 77.9431C444.188 74.1266 446.113 69.91 447.311 65.4644C448.735 60.1227 449.418 54.6105 449.341 49.0827C449.419 43.5853 448.736 38.1036 447.311 32.7935C446.116 28.3465 444.203 24.1244 441.648 20.2935ZM421.442 61.0912C420.338 64.3828 418.37 67.3175 415.744 69.5884C412.739 72.0378 409.21 73.7611 405.43 74.624C400.343 75.8149 395.127 76.3676 389.903 76.2693H338.621V22.0029H389.903C395.127 21.9062 400.342 22.4564 405.43 23.6411C409.196 24.5144 412.72 26.2177 415.744 28.6268C418.375 30.8638 420.346 33.7774 421.442 37.0528C422.711 40.9289 423.323 44.9903 423.251 49.0684C423.325 53.149 422.714 57.2132 421.442 61.0912ZM464.561 97.1738H489.711V1.09834H464.561V97.1738ZM585.224 1.09834H556.278L506 97.1738H534.953L543.97 78.9829H597.531L606.556 97.1596H635.502L585.224 1.09834ZM553.272 60.2579L570.893 24.8519L588.372 60.2365L553.272 60.2579ZM92.5599 23.812V0.635376H75.9146C60.2451 0.635376 41.3847 10.2294 25.4018 21.775V1.09834H0.252197V96.6966H25.4018V48.7693C39.3406 36.1767 55.2807 26.1268 67.4246 22.5371V96.6966H92.5741V51.3334C107.125 37.5513 124.405 26.369 137.346 22.5371V96.6966H162.496V0.635376H145.851C129.219 0.635376 109.098 11.3832 92.5599 23.812ZM182.873 17.1453C182.873 30.2508 190.295 41.2408 200.936 48.3419C190.295 55.963 182.873 67.5727 182.873 80.6496V96.6966H295.238V76.2123H207.909C207.909 65.4359 216.641 57.0955 227.417 57.0955H282.46V38.8191H227.417C216.641 38.8191 207.909 32.359 207.909 21.5827H295.238V1.09834H182.873V17.1453Z" fill="white"/>
</svg>