<svg xmlns="http://www.w3.org/2000/svg" width="379" height="96" viewBox="0 0 379 96" fill="none">
  <path d="M273.776 0.105469V20.483H313.513V95.7038H338.826V20.483H378.627V0.105469H273.776ZM147.046 16.1525C147.046 29.2579 154.467 40.2479 165.108 47.3491C154.467 54.9701 147.046 66.5798 147.046 79.6567V95.7038H259.41V75.2194H172.081C172.081 64.4431 180.813 56.1026 191.59 56.1026H246.633V37.8263H191.59C180.813 37.8263 172.081 31.3662 172.081 20.5898H259.41V0.105469H147.046V16.1525ZM101.647 48.275C76.5114 20.775 38.1923 0.105469 12.302 0.105469H0.329102V22.7123V95.7038H25.4787V25.0129C52.8718 33.4032 92.8647 63.5955 102.473 95.7038H126.689V0.105469H101.647V48.275Z" fill="white"/>
</svg>