<svg width="59" height="59" viewBox="0 0 59 59" fill="none" xmlns="http://www.w3.org/2000/svg">
<g id="Group">
<path id="Vector" d="M40.9069 22.192C41.163 21.9532 41.3696 21.6663 41.5149 21.3476C41.6602 21.0289 41.7413 20.6847 41.7535 20.3347C41.7658 19.9847 41.709 19.6357 41.5863 19.3076C41.4637 18.9796 41.2777 18.6789 41.0389 18.4227C40.8 18.1666 40.5131 17.9599 40.1944 17.8147C39.8757 17.6694 39.5315 17.5883 39.1815 17.5761C38.8315 17.5638 38.4825 17.6206 38.1544 17.7432C37.8264 17.8659 37.5257 18.0519 37.2695 18.2907L29.4669 25.5654L22.1922 17.7601C21.7054 17.2615 21.0429 16.9733 20.3463 16.957C19.6497 16.9408 18.9745 17.1978 18.465 17.6731C17.9555 18.1484 17.6523 18.8043 17.6203 19.5003C17.5882 20.1963 17.8299 20.8773 18.2935 21.3974L25.5682 29.2001L17.7629 36.4747C17.4976 36.7111 17.2823 36.9981 17.1296 37.3189C16.9769 37.6397 16.8898 37.9878 16.8734 38.3427C16.8571 38.6976 16.9118 39.0522 17.0344 39.3856C17.1571 39.7191 17.3451 40.0247 17.5874 40.2845C17.8298 40.5443 18.1216 40.753 18.4458 40.8984C18.77 41.0438 19.1199 41.123 19.4751 41.1313C19.8303 41.1396 20.1836 41.0768 20.5141 40.9466C20.8447 40.8165 21.146 40.6216 21.4002 40.3734L29.2029 33.1014L36.4775 40.9041C36.7124 41.1742 36.9993 41.3942 37.321 41.5511C37.6428 41.708 37.9928 41.7985 38.3503 41.8172C38.7077 41.8359 39.0653 41.7825 39.4017 41.6601C39.7381 41.5377 40.0464 41.3488 40.3082 41.1047C40.57 40.8606 40.78 40.5663 40.9257 40.2393C41.0713 39.9123 41.1497 39.5594 41.156 39.2015C41.1624 38.8436 41.0966 38.4881 40.9626 38.1561C40.8286 37.8242 40.6292 37.5226 40.3762 37.2694L33.1042 29.4667L40.9069 22.192Z" fill="#D2F950"/>
<path id="Vector_2" fill-rule="evenodd" clip-rule="evenodd" d="M0 29.3333C0 13.1333 13.1333 0 29.3333 0C45.5333 0 58.6667 13.1333 58.6667 29.3333C58.6667 45.5333 45.5333 58.6667 29.3333 58.6667C13.1333 58.6667 0 45.5333 0 29.3333ZM29.3333 53.3333C26.1816 53.3333 23.0607 52.7126 20.1489 51.5064C17.2371 50.3003 14.5914 48.5325 12.3628 46.3039C10.1342 44.0753 8.36634 41.4296 7.16022 38.5177C5.95411 35.6059 5.33333 32.4851 5.33333 29.3333C5.33333 26.1816 5.95411 23.0607 7.16022 20.1489C8.36634 17.2371 10.1342 14.5914 12.3628 12.3628C14.5914 10.1342 17.2371 8.36634 20.1489 7.16022C23.0607 5.95411 26.1816 5.33333 29.3333 5.33333C35.6985 5.33333 41.803 7.8619 46.3039 12.3628C50.8048 16.8636 53.3333 22.9681 53.3333 29.3333C53.3333 35.6985 50.8048 41.803 46.3039 46.3039C41.803 50.8048 35.6985 53.3333 29.3333 53.3333Z" fill="#D2F950"/>
</g>
</svg>
